<?xml version="1.0" encoding="UTF-8" standalone="no"?>
<!-- Created with Inkscape (http://www.inkscape.org/) -->

<svg
   width="184.5743mm"
   height="184.5743mm"
   viewBox="0 0 184.5743 184.5743"
   version="1.1"
   id="svg1"
   xmlns="http://www.w3.org/2000/svg"
   xmlns:svg="http://www.w3.org/2000/svg">
  <defs
     id="defs1">
    <linearGradient
       id="swatch9">
      <stop
         style="stop-color:#000000;stop-opacity:1;"
         offset="0"
         id="stop9" />
    </linearGradient>
  </defs>
  <g
     id="layer1"
     transform="translate(-10.507075,-32.221695)">
    <circle
       style="fill:none;stroke:#000000;stroke-width:2.365;stroke-dasharray:none;stroke-opacity:1"
       id="path1"
       cx="67.180923"
       cy="125.03419"
       r="45.180424" />
    <circle
       style="fill:none;stroke:#000000;stroke-width:2.365;stroke-dasharray:none;stroke-opacity:1"
       id="path1-6"
       cx="139.108"
       cy="125.03419"
       r="45.180424" />
    <rect
       style="fill:none;stroke:none;stroke-width:2.365;stroke-dasharray:none;stroke-opacity:1"
       id="rect1"
       width="184.5743"
       height="184.5743"
       x="10.507075"
       y="32.221695" />
    <path
       style="fill:#000000;fill-opacity:1;stroke:#000000;stroke-width:3.77952761;stroke-dasharray:none;stroke-opacity:1"
       d="m 343.70014,435.40598 c -28.55468,-47.93592 -31.06601,-106.41566 -6.71953,-156.47331 5.80243,-11.9301 11.78712,-21.99637 13.07749,-21.99637 1.09492,0 7.47623,10.30107 12.19398,19.68422 23.20389,46.15023 23.54752,100.02132 0.93422,146.45856 -4.51532,9.27238 -12.14234,21.99637 -13.18506,21.99637 -0.29763,0 -3.13313,-4.35127 -6.3011,-9.66947 z"
       id="path7"
       transform="matrix(0.26458333,0,0,0.26458333,10.507075,32.221695)" />
    <path
       style="fill:#000000;fill-opacity:1;stroke:#ffffff;stroke-width:3.77952761;stroke-dasharray:none;stroke-opacity:1"
       d="m 466.60381,515.62466 c -35.05117,-5.21928 -65.26072,-18.86225 -90.34137,-40.79918 -9.74983,-8.52774 -19.92098,-20.10619 -18.99947,-21.62826 0.36684,-0.60591 2.73138,-4.26071 5.25454,-8.12177 14.998,-22.9507 25.04379,-53.93982 26.7018,-82.36938 2.31375,-39.67337 -6.92625,-75.67299 -27.58692,-107.48043 l -5.06312,-7.79476 3.82094,-4.5637 c 6.39403,-7.63696 20.91221,-20.85405 29.87509,-27.19775 19.0483,-13.48189 43.80564,-23.89473 66.47561,-27.95938 81.21379,-14.56135 160.52393,32.74627 186.67063,111.34695 6.35667,19.10906 7.51278,26.91827 7.55217,51.01286 0.0309,18.88573 -0.23067,22.84116 -2.13063,32.2232 -11.99018,59.208 -53.27721,106.04453 -110.98657,125.90454 -15.83837,5.4506 -27.39103,7.24001 -48.77833,7.55536 -10.81098,0.1594 -20.91995,0.10167 -22.46437,-0.1283 z"
       id="path8"
       transform="matrix(0.26458333,0,0,0.26458333,10.507075,32.221695)" />
    <path
       style="fill:#000000;fill-opacity:1;stroke:#ffffff;stroke-width:3.77952761;stroke-dasharray:none;stroke-opacity:1"
       d="M 189.94422,514.83618 C 122.86841,503.91396 69.843256,455.80297 53.409605,390.95504 48.019895,369.687 47.205015,340.30068 51.422479,319.295 64.144898,255.9292 111.8733,205.5897 173.92761,190.08793 c 30.80715,-7.69592 62.33109,-6.54569 92.36885,3.37031 16.51994,5.45353 37.71678,16.88369 50.54484,27.25574 5.98139,4.83622 20.36984,18.81402 23.93676,23.2536 l 2.74097,3.41156 -5.74853,9.14625 c -11.2521,17.90275 -19.45477,38.14191 -23.84986,58.84684 -3.27615,15.4337 -4.1386,43.52532 -1.8268,59.50204 3.89306,26.90471 15.05005,56.05457 28.59704,74.71545 1.61557,2.22544 2.80723,4.41432 2.64814,4.86418 -0.15911,0.44986 -3.28746,4.11728 -6.9519,8.14984 -22.82293,25.11559 -55.16404,43.43741 -89.74699,50.8433 -12.19596,2.61174 -44.34947,3.39955 -56.69591,1.38914 z"
       id="path9"
       transform="matrix(0.26458333,0,0,0.26458333,10.507075,32.221695)" />
  </g>
</svg>
